<mxfile host="app.diagrams.net" modified="2022-02-26T13:33:20.502Z" agent="5.0 (Windows)" etag="vP6MnAqqmU4W_kFDVq0N" version="16.6.4" type="github" pages="2">
  <diagram id="9ppDih5YOD3AmxmbfwJo" name="Diagram V2">
    <mxGraphModel dx="868" dy="508" grid="1" gridSize="10" guides="1" tooltips="1" connect="1" arrows="1" fold="1" page="1" pageScale="1" pageWidth="827" pageHeight="1169" math="0" shadow="0">
      <root>
        <mxCell id="lcjq12P4D_69llkglYpq-0" />
        <mxCell id="lcjq12P4D_69llkglYpq-1" parent="lcjq12P4D_69llkglYpq-0" />
        <mxCell id="OuQdZZEHFQQSed1AEhN--0" value="" style="endArrow=open;html=1;fontColor=#000099;endFill=0;dashed=1;entryX=0.5;entryY=1;entryDx=0;entryDy=0;endSize=8;exitX=0.737;exitY=0.057;exitDx=0;exitDy=0;rounded=0;exitPerimeter=0;" parent="lcjq12P4D_69llkglYpq-1" source="OuQdZZEHFQQSed1AEhN--3" target="OuQdZZEHFQQSed1AEhN--2" edge="1">
          <mxGeometry width="50" height="50" relative="1" as="geometry">
            <mxPoint x="140" y="230" as="sourcePoint" />
            <mxPoint x="12.999999999989313" y="160" as="targetPoint" />
          </mxGeometry>
        </mxCell>
        <mxCell id="OuQdZZEHFQQSed1AEhN--1" value="&amp;lt;&amp;lt;rdf:type&amp;gt;&amp;gt;" style="text;html=1;align=center;verticalAlign=middle;resizable=0;points=[];fontColor=#000000;labelBackgroundColor=#ffffff;" parent="OuQdZZEHFQQSed1AEhN--0" vertex="1" connectable="0">
          <mxGeometry x="-0.3277" relative="1" as="geometry">
            <mxPoint x="1" y="-1" as="offset" />
          </mxGeometry>
        </mxCell>
        <mxCell id="OuQdZZEHFQQSed1AEhN--2" value="skos:ConceptScheme" style="rounded=0;whiteSpace=wrap;html=1;snapToPoint=1;points=[[0.1,0],[0.2,0],[0.3,0],[0.4,0],[0.5,0],[0.6,0],[0.7,0],[0.8,0],[0.9,0],[0,0.1],[0,0.3],[0,0.5],[0,0.7],[0,0.9],[0.1,1],[0.2,1],[0.3,1],[0.4,1],[0.5,1],[0.6,1],[0.7,1],[0.8,1],[0.9,1],[1,0.1],[1,0.3],[1,0.5],[1,0.7],[1,0.9]];" parent="lcjq12P4D_69llkglYpq-1" vertex="1">
          <mxGeometry x="380" y="150" width="140" height="30" as="geometry" />
        </mxCell>
        <mxCell id="OuQdZZEHFQQSed1AEhN--3" value="&lt;pre class=&quot;nohighlight&quot;&gt;&lt;u&gt;&amp;lt;http://id.insee.fr/codes/naf/naf&amp;gt;&lt;/u&gt;&lt;/pre&gt;" style="rounded=0;whiteSpace=wrap;html=1;snapToPoint=1;points=[[0.1,0],[0.2,0],[0.3,0],[0.4,0],[0.5,0],[0.6,0],[0.7,0],[0.8,0],[0.9,0],[0,0.1],[0,0.3],[0,0.5],[0,0.7],[0,0.9],[0.1,1],[0.2,1],[0.3,1],[0.4,1],[0.5,1],[0.6,1],[0.7,1],[0.8,1],[0.9,1],[1,0.1],[1,0.3],[1,0.5],[1,0.7],[1,0.9]];" parent="lcjq12P4D_69llkglYpq-1" vertex="1">
          <mxGeometry x="90" y="225" width="270" height="35" as="geometry" />
        </mxCell>
        <mxCell id="OuQdZZEHFQQSed1AEhN--15" value="" style="endArrow=open;html=1;fontColor=#000099;endFill=0;dashed=1;entryX=0.5;entryY=1;entryDx=0;entryDy=0;endSize=8;exitX=0.141;exitY=0;exitDx=0;exitDy=0;rounded=0;exitPerimeter=0;" parent="lcjq12P4D_69llkglYpq-1" source="OuQdZZEHFQQSed1AEhN--18" target="OuQdZZEHFQQSed1AEhN--2" edge="1">
          <mxGeometry width="50" height="50" relative="1" as="geometry">
            <mxPoint x="590" y="230" as="sourcePoint" />
            <mxPoint x="462.9999999999893" y="160" as="targetPoint" />
          </mxGeometry>
        </mxCell>
        <mxCell id="OuQdZZEHFQQSed1AEhN--16" value="&amp;lt;&amp;lt;rdf:type&amp;gt;&amp;gt;" style="text;html=1;align=center;verticalAlign=middle;resizable=0;points=[];fontColor=#000000;labelBackgroundColor=#ffffff;" parent="OuQdZZEHFQQSed1AEhN--15" vertex="1" connectable="0">
          <mxGeometry x="-0.3277" relative="1" as="geometry">
            <mxPoint y="-3" as="offset" />
          </mxGeometry>
        </mxCell>
        <mxCell id="OuQdZZEHFQQSed1AEhN--19" style="edgeStyle=orthogonalEdgeStyle;rounded=0;orthogonalLoop=1;jettySize=auto;html=1;exitX=0;exitY=0.1;exitDx=0;exitDy=0;entryX=1;entryY=0.1;entryDx=0;entryDy=0;" parent="lcjq12P4D_69llkglYpq-1" source="OuQdZZEHFQQSed1AEhN--18" target="OuQdZZEHFQQSed1AEhN--3" edge="1">
          <mxGeometry relative="1" as="geometry" />
        </mxCell>
        <mxCell id="yx_qY9X_HHnGIZW6z2Pu-0" value="prov:wasRevisionOf" style="edgeLabel;html=1;align=center;verticalAlign=middle;resizable=0;points=[];fontSize=12;" parent="OuQdZZEHFQQSed1AEhN--19" vertex="1" connectable="0">
          <mxGeometry x="0.2667" y="4" relative="1" as="geometry">
            <mxPoint x="24" y="-3" as="offset" />
          </mxGeometry>
        </mxCell>
        <mxCell id="OuQdZZEHFQQSed1AEhN--18" value="&lt;pre class=&quot;nohighlight&quot;&gt;&lt;u&gt;&amp;lt;http://id.insee.fr/codes/nafr1/naf&amp;gt;&lt;/u&gt;&lt;/pre&gt;" style="rounded=0;whiteSpace=wrap;html=1;snapToPoint=1;points=[[0.1,0],[0.2,0],[0.3,0],[0.4,0],[0.5,0],[0.6,0],[0.7,0],[0.8,0],[0.9,0],[0,0.1],[0,0.3],[0,0.5],[0,0.7],[0,0.9],[0.1,1],[0.2,1],[0.3,1],[0.4,1],[0.5,1],[0.6,1],[0.7,1],[0.8,1],[0.9,1],[1,0.1],[1,0.3],[1,0.5],[1,0.7],[1,0.9]];" parent="lcjq12P4D_69llkglYpq-1" vertex="1">
          <mxGeometry x="540" y="225" width="270" height="35" as="geometry" />
        </mxCell>
        <mxCell id="yx_qY9X_HHnGIZW6z2Pu-5" style="edgeStyle=orthogonalEdgeStyle;rounded=0;orthogonalLoop=1;jettySize=auto;html=1;entryX=1;entryY=0.7;entryDx=0;entryDy=0;" parent="lcjq12P4D_69llkglYpq-1" target="OuQdZZEHFQQSed1AEhN--3" edge="1">
          <mxGeometry relative="1" as="geometry">
            <mxPoint x="540" y="250" as="sourcePoint" />
            <mxPoint x="370" y="238.5" as="targetPoint" />
          </mxGeometry>
        </mxCell>
        <mxCell id="yx_qY9X_HHnGIZW6z2Pu-6" value="xkos:supersedes" style="edgeLabel;html=1;align=center;verticalAlign=middle;resizable=0;points=[];fontSize=12;" parent="yx_qY9X_HHnGIZW6z2Pu-5" vertex="1" connectable="0">
          <mxGeometry x="0.2667" y="4" relative="1" as="geometry">
            <mxPoint x="24" y="-3" as="offset" />
          </mxGeometry>
        </mxCell>
        <mxCell id="7JEKa1wvSDgmxQDSXvCo-0" value="true" style="rounded=0;whiteSpace=wrap;html=1;snapToPoint=1;fontSize=12;" parent="lcjq12P4D_69llkglYpq-1" vertex="1">
          <mxGeometry x="120" y="310" width="60" height="30" as="geometry" />
        </mxCell>
        <mxCell id="7JEKa1wvSDgmxQDSXvCo-1" value="owl:deprecated" style="edgeStyle=orthogonalEdgeStyle;rounded=0;orthogonalLoop=1;jettySize=auto;html=1;fontSize=12;exitX=0.226;exitY=1;exitDx=0;exitDy=0;exitPerimeter=0;" parent="lcjq12P4D_69llkglYpq-1" source="OuQdZZEHFQQSed1AEhN--3" target="7JEKa1wvSDgmxQDSXvCo-0" edge="1">
          <mxGeometry relative="1" as="geometry">
            <mxPoint x="150" y="260" as="sourcePoint" />
          </mxGeometry>
        </mxCell>
        <mxCell id="ISzdMpIGYW4XXX3_IUKI-1" value="&lt;br&gt;&lt;pre class=&quot;nohighlight&quot;&gt;&lt;u&gt;&amp;lt;http://id.insee.fr/codes/naf/naf/&lt;br&gt;PeriodeOfTime&amp;gt;&lt;/u&gt;&lt;/pre&gt;&lt;u&gt;&amp;gt;&lt;/u&gt;" style="rounded=0;whiteSpace=wrap;html=1;snapToPoint=1;points=[[0.1,0],[0.2,0],[0.3,0],[0.4,0],[0.5,0],[0.6,0],[0.7,0],[0.8,0],[0.9,0],[0,0.1],[0,0.3],[0,0.5],[0,0.7],[0,0.9],[0.1,1],[0.2,1],[0.3,1],[0.4,1],[0.5,1],[0.6,1],[0.7,1],[0.8,1],[0.9,1],[1,0.1],[1,0.3],[1,0.5],[1,0.7],[1,0.9]];fontSize=12;" parent="lcjq12P4D_69llkglYpq-1" vertex="1">
          <mxGeometry x="55" y="100" width="250" height="60" as="geometry" />
        </mxCell>
        <mxCell id="ISzdMpIGYW4XXX3_IUKI-2" value="" style="endArrow=classic;html=1;entryX=0.5;entryY=1;entryDx=0;entryDy=0;endSize=8;rounded=0;fontSize=12;edgeStyle=orthogonalEdgeStyle;exitX=0.259;exitY=0;exitDx=0;exitDy=0;exitPerimeter=0;" parent="lcjq12P4D_69llkglYpq-1" source="OuQdZZEHFQQSed1AEhN--3" target="ISzdMpIGYW4XXX3_IUKI-1" edge="1">
          <mxGeometry width="50" height="50" relative="1" as="geometry">
            <mxPoint x="160" y="230" as="sourcePoint" />
            <mxPoint x="480" y="445" as="targetPoint" />
          </mxGeometry>
        </mxCell>
        <mxCell id="ISzdMpIGYW4XXX3_IUKI-3" value="dct:temporal" style="text;html=1;align=center;verticalAlign=middle;resizable=0;points=[];labelBackgroundColor=#ffffff;fontSize=12;" parent="ISzdMpIGYW4XXX3_IUKI-2" vertex="1" connectable="0">
          <mxGeometry x="-0.1269" relative="1" as="geometry">
            <mxPoint as="offset" />
          </mxGeometry>
        </mxCell>
        <mxCell id="ISzdMpIGYW4XXX3_IUKI-6" value="&quot;1993-01-01&quot;^^xsd:date" style="rounded=0;whiteSpace=wrap;html=1;snapToPoint=1;fontSize=12;" parent="lcjq12P4D_69llkglYpq-1" vertex="1">
          <mxGeometry x="20" width="140" height="30" as="geometry" />
        </mxCell>
        <mxCell id="ISzdMpIGYW4XXX3_IUKI-7" value="dcat:startDate" style="edgeStyle=orthogonalEdgeStyle;rounded=0;orthogonalLoop=1;jettySize=auto;html=1;exitX=0.2;exitY=0;exitDx=0;exitDy=0;fontSize=12;" parent="lcjq12P4D_69llkglYpq-1" source="ISzdMpIGYW4XXX3_IUKI-1" target="ISzdMpIGYW4XXX3_IUKI-6" edge="1">
          <mxGeometry x="0.064" relative="1" as="geometry">
            <mxPoint as="offset" />
          </mxGeometry>
        </mxCell>
        <mxCell id="YfpkQbYx1Hv9M5nSTWcQ-0" value="dcat:endDate" style="edgeStyle=orthogonalEdgeStyle;rounded=0;orthogonalLoop=1;jettySize=auto;html=1;exitX=0.7;exitY=0;exitDx=0;exitDy=0;fontSize=12;entryX=0.5;entryY=1;entryDx=0;entryDy=0;" parent="lcjq12P4D_69llkglYpq-1" source="ISzdMpIGYW4XXX3_IUKI-1" target="YfpkQbYx1Hv9M5nSTWcQ-1" edge="1">
          <mxGeometry x="0.1667" relative="1" as="geometry">
            <mxPoint x="140" y="150" as="sourcePoint" />
            <mxPoint x="260" y="90" as="targetPoint" />
            <mxPoint as="offset" />
          </mxGeometry>
        </mxCell>
        <mxCell id="YfpkQbYx1Hv9M5nSTWcQ-1" value="&quot;2002-12-31&quot;^^xsd:date" style="rounded=0;whiteSpace=wrap;html=1;snapToPoint=1;fontSize=12;" parent="lcjq12P4D_69llkglYpq-1" vertex="1">
          <mxGeometry x="180" width="140" height="30" as="geometry" />
        </mxCell>
        <mxCell id="vST9lmtxhEGWdHNGVFOp-0" value="" style="endArrow=classic;html=1;endSize=8;rounded=0;fontSize=12;edgeStyle=orthogonalEdgeStyle;entryX=0.5;entryY=1;entryDx=0;entryDy=0;" parent="lcjq12P4D_69llkglYpq-1" target="vST9lmtxhEGWdHNGVFOp-2" edge="1">
          <mxGeometry width="50" height="50" relative="1" as="geometry">
            <mxPoint x="700" y="220" as="sourcePoint" />
            <mxPoint x="621" y="90" as="targetPoint" />
          </mxGeometry>
        </mxCell>
        <mxCell id="vST9lmtxhEGWdHNGVFOp-1" value="dct:temporal" style="text;html=1;align=center;verticalAlign=middle;resizable=0;points=[];labelBackgroundColor=#ffffff;fontSize=12;" parent="vST9lmtxhEGWdHNGVFOp-0" vertex="1" connectable="0">
          <mxGeometry x="-0.1269" relative="1" as="geometry">
            <mxPoint as="offset" />
          </mxGeometry>
        </mxCell>
        <mxCell id="vST9lmtxhEGWdHNGVFOp-2" value="&lt;br&gt;&lt;pre class=&quot;nohighlight&quot;&gt;&lt;u&gt;&amp;lt;http://id.insee.fr/codes/nafr1/naf/&lt;br&gt;PeriodeOfTime&amp;gt;&lt;/u&gt;&lt;/pre&gt;&lt;u&gt;&amp;gt;&lt;/u&gt;" style="rounded=0;whiteSpace=wrap;html=1;snapToPoint=1;points=[[0.1,0],[0.2,0],[0.3,0],[0.4,0],[0.5,0],[0.6,0],[0.7,0],[0.8,0],[0.9,0],[0,0.1],[0,0.3],[0,0.5],[0,0.7],[0,0.9],[0.1,1],[0.2,1],[0.3,1],[0.4,1],[0.5,1],[0.6,1],[0.7,1],[0.8,1],[0.9,1],[1,0.1],[1,0.3],[1,0.5],[1,0.7],[1,0.9]];fontSize=12;" parent="lcjq12P4D_69llkglYpq-1" vertex="1">
          <mxGeometry x="580" y="105" width="265" height="55" as="geometry" />
        </mxCell>
        <mxCell id="vST9lmtxhEGWdHNGVFOp-4" value="&quot;2003-01-01&quot;^^xsd:date" style="rounded=0;whiteSpace=wrap;html=1;snapToPoint=1;fontSize=12;" parent="lcjq12P4D_69llkglYpq-1" vertex="1">
          <mxGeometry x="550" width="140" height="30" as="geometry" />
        </mxCell>
        <mxCell id="vST9lmtxhEGWdHNGVFOp-5" value="dcat:startDate" style="edgeStyle=orthogonalEdgeStyle;rounded=0;orthogonalLoop=1;jettySize=auto;html=1;exitX=0.4;exitY=0;exitDx=0;exitDy=0;fontSize=12;" parent="lcjq12P4D_69llkglYpq-1" source="vST9lmtxhEGWdHNGVFOp-2" target="vST9lmtxhEGWdHNGVFOp-4" edge="1">
          <mxGeometry x="0.064" relative="1" as="geometry">
            <mxPoint x="590" y="110" as="sourcePoint" />
            <mxPoint as="offset" />
          </mxGeometry>
        </mxCell>
        <mxCell id="vST9lmtxhEGWdHNGVFOp-6" value="&lt;font style=&quot;font-size: 13px&quot;&gt;&lt;b&gt;&quot;NAF&quot;&lt;/b&gt;&lt;/font&gt;" style="rounded=0;whiteSpace=wrap;html=1;snapToPoint=1;fontSize=12;" parent="lcjq12P4D_69llkglYpq-1" vertex="1">
          <mxGeometry x="240" y="310" width="120" height="30" as="geometry" />
        </mxCell>
        <mxCell id="vST9lmtxhEGWdHNGVFOp-7" value="skos:prefLabel" style="edgeStyle=orthogonalEdgeStyle;rounded=0;orthogonalLoop=1;jettySize=auto;html=1;fontSize=12;exitX=0.778;exitY=1.057;exitDx=0;exitDy=0;exitPerimeter=0;" parent="lcjq12P4D_69llkglYpq-1" source="OuQdZZEHFQQSed1AEhN--3" target="vST9lmtxhEGWdHNGVFOp-6" edge="1">
          <mxGeometry relative="1" as="geometry">
            <mxPoint x="300" y="260" as="sourcePoint" />
          </mxGeometry>
        </mxCell>
        <mxCell id="vST9lmtxhEGWdHNGVFOp-8" value="&lt;font style=&quot;font-size: 13px&quot;&gt;&lt;b&gt;&quot;NAF Rev 1&quot;&lt;/b&gt;&lt;/font&gt;" style="rounded=0;whiteSpace=wrap;html=1;snapToPoint=1;fontSize=12;" parent="lcjq12P4D_69llkglYpq-1" vertex="1">
          <mxGeometry x="690" y="308.01" width="120" height="30" as="geometry" />
        </mxCell>
        <mxCell id="vST9lmtxhEGWdHNGVFOp-9" value="skos:prefLabel" style="edgeStyle=orthogonalEdgeStyle;rounded=0;orthogonalLoop=1;jettySize=auto;html=1;fontSize=12;" parent="lcjq12P4D_69llkglYpq-1" target="vST9lmtxhEGWdHNGVFOp-8" edge="1">
          <mxGeometry relative="1" as="geometry">
            <mxPoint x="750" y="260" as="sourcePoint" />
          </mxGeometry>
        </mxCell>
        <mxCell id="NIlG323Xyj8o4IyE_6QM-0" value="&lt;pre class=&quot;nohighlight&quot;&gt;&lt;u&gt;&amp;lt;http://id.insee.fr/codes/naf-nafr1&amp;gt;&lt;/u&gt;&lt;/pre&gt;" style="rounded=0;whiteSpace=wrap;html=1;snapToPoint=1;points=[[0.1,0],[0.2,0],[0.3,0],[0.4,0],[0.5,0],[0.6,0],[0.7,0],[0.8,0],[0.9,0],[0,0.1],[0,0.3],[0,0.5],[0,0.7],[0,0.9],[0.1,1],[0.2,1],[0.3,1],[0.4,1],[0.5,1],[0.6,1],[0.7,1],[0.8,1],[0.9,1],[1,0.1],[1,0.3],[1,0.5],[1,0.7],[1,0.9]];" parent="lcjq12P4D_69llkglYpq-1" vertex="1">
          <mxGeometry x="320" y="406.99" width="270" height="35" as="geometry" />
        </mxCell>
        <mxCell id="9NP3h25YaKEncPSyTTvU-2" value="" style="endArrow=classic;html=1;exitX=0.5;exitY=0;exitDx=0;exitDy=0;entryX=1;entryY=0.9;entryDx=0;entryDy=0;endSize=8;rounded=0;fontSize=12;" parent="lcjq12P4D_69llkglYpq-1" source="NIlG323Xyj8o4IyE_6QM-0" target="OuQdZZEHFQQSed1AEhN--3" edge="1">
          <mxGeometry width="50" height="50" relative="1" as="geometry">
            <mxPoint x="323.00000000000045" y="615" as="sourcePoint" />
            <mxPoint x="520" y="615" as="targetPoint" />
          </mxGeometry>
        </mxCell>
        <mxCell id="9NP3h25YaKEncPSyTTvU-3" value="xkos:compares" style="text;html=1;align=center;verticalAlign=middle;resizable=0;points=[];labelBackgroundColor=#ffffff;fontSize=12;" parent="9NP3h25YaKEncPSyTTvU-2" vertex="1" connectable="0">
          <mxGeometry x="-0.1269" relative="1" as="geometry">
            <mxPoint x="1" y="2" as="offset" />
          </mxGeometry>
        </mxCell>
        <mxCell id="9NP3h25YaKEncPSyTTvU-4" value="" style="endArrow=classic;html=1;exitX=0.5;exitY=0;exitDx=0;exitDy=0;entryX=0;entryY=0.9;entryDx=0;entryDy=0;endSize=8;rounded=0;fontSize=12;" parent="lcjq12P4D_69llkglYpq-1" source="NIlG323Xyj8o4IyE_6QM-0" target="OuQdZZEHFQQSed1AEhN--18" edge="1">
          <mxGeometry width="50" height="50" relative="1" as="geometry">
            <mxPoint x="465" y="430" as="sourcePoint" />
            <mxPoint x="370" y="266.5" as="targetPoint" />
          </mxGeometry>
        </mxCell>
        <mxCell id="9NP3h25YaKEncPSyTTvU-5" value="xkos:compares" style="text;html=1;align=center;verticalAlign=middle;resizable=0;points=[];labelBackgroundColor=#ffffff;fontSize=12;" parent="9NP3h25YaKEncPSyTTvU-4" vertex="1" connectable="0">
          <mxGeometry x="-0.1269" relative="1" as="geometry">
            <mxPoint x="-2" y="21" as="offset" />
          </mxGeometry>
        </mxCell>
        <mxCell id="9NP3h25YaKEncPSyTTvU-6" value="&lt;pre class=&quot;nohighlight&quot;&gt;&lt;u&gt;&amp;lt;http://id.insee.fr/codes/nafr1/classe/29.1B&amp;gt;&lt;/u&gt;&lt;/pre&gt;" style="rounded=0;whiteSpace=wrap;html=1;snapToPoint=1;points=[[0.1,0],[0.2,0],[0.3,0],[0.4,0],[0.5,0],[0.6,0],[0.7,0],[0.8,0],[0.9,0],[0,0.1],[0,0.3],[0,0.5],[0,0.7],[0,0.9],[0.1,1],[0.2,1],[0.3,1],[0.4,1],[0.5,1],[0.6,1],[0.7,1],[0.8,1],[0.9,1],[1,0.1],[1,0.3],[1,0.5],[1,0.7],[1,0.9]];" parent="lcjq12P4D_69llkglYpq-1" vertex="1">
          <mxGeometry x="55" y="645" width="340" height="35" as="geometry" />
        </mxCell>
        <mxCell id="9NP3h25YaKEncPSyTTvU-7" value="&lt;pre class=&quot;nohighlight&quot;&gt;&lt;u&gt;&amp;lt;http://id.insee.fr/codes/naf/classe/29.1C&amp;gt;&lt;/u&gt;&lt;/pre&gt;" style="rounded=0;whiteSpace=wrap;html=1;snapToPoint=1;points=[[0.1,0],[0.2,0],[0.3,0],[0.4,0],[0.5,0],[0.6,0],[0.7,0],[0.8,0],[0.9,0],[0,0.1],[0,0.3],[0,0.5],[0,0.7],[0,0.9],[0.1,1],[0.2,1],[0.3,1],[0.4,1],[0.5,1],[0.6,1],[0.7,1],[0.8,1],[0.9,1],[1,0.1],[1,0.3],[1,0.5],[1,0.7],[1,0.9]];" parent="lcjq12P4D_69llkglYpq-1" vertex="1">
          <mxGeometry x="505" y="645" width="340" height="35" as="geometry" />
        </mxCell>
        <mxCell id="9NP3h25YaKEncPSyTTvU-8" value="" style="endArrow=classic;html=1;exitX=0.5;exitY=0;exitDx=0;exitDy=0;entryX=0.5;entryY=1;entryDx=0;entryDy=0;endSize=8;rounded=0;fontSize=12;" parent="lcjq12P4D_69llkglYpq-1" source="9NP3h25YaKEncPSyTTvU-6" target="OuQdZZEHFQQSed1AEhN--3" edge="1">
          <mxGeometry width="50" height="50" relative="1" as="geometry">
            <mxPoint x="465" y="430" as="sourcePoint" />
            <mxPoint x="550" y="266.5" as="targetPoint" />
          </mxGeometry>
        </mxCell>
        <mxCell id="9NP3h25YaKEncPSyTTvU-9" value="skos:inScheme" style="text;html=1;align=center;verticalAlign=middle;resizable=0;points=[];labelBackgroundColor=#ffffff;fontSize=12;" parent="9NP3h25YaKEncPSyTTvU-8" vertex="1" connectable="0">
          <mxGeometry x="-0.1269" relative="1" as="geometry">
            <mxPoint x="-2" y="21" as="offset" />
          </mxGeometry>
        </mxCell>
        <mxCell id="9NP3h25YaKEncPSyTTvU-10" value="" style="endArrow=classic;html=1;exitX=0.5;exitY=0;exitDx=0;exitDy=0;endSize=8;rounded=0;fontSize=12;" parent="lcjq12P4D_69llkglYpq-1" source="9NP3h25YaKEncPSyTTvU-7" target="OuQdZZEHFQQSed1AEhN--18" edge="1">
          <mxGeometry width="50" height="50" relative="1" as="geometry">
            <mxPoint x="235" y="590" as="sourcePoint" />
            <mxPoint x="235" y="270" as="targetPoint" />
          </mxGeometry>
        </mxCell>
        <mxCell id="9NP3h25YaKEncPSyTTvU-11" value="skos:inScheme" style="text;html=1;align=center;verticalAlign=middle;resizable=0;points=[];labelBackgroundColor=#ffffff;fontSize=12;" parent="9NP3h25YaKEncPSyTTvU-10" vertex="1" connectable="0">
          <mxGeometry x="-0.1269" relative="1" as="geometry">
            <mxPoint x="-2" y="21" as="offset" />
          </mxGeometry>
        </mxCell>
        <mxCell id="9NP3h25YaKEncPSyTTvU-12" value="&lt;pre class=&quot;nohighlight&quot;&gt;&lt;u&gt;&amp;lt;http://id.insee/codes/naf-nafr1/association/29.1B-29.1C&amp;gt;&lt;/u&gt;&lt;/pre&gt;" style="rounded=0;whiteSpace=wrap;html=1;snapToPoint=1;points=[[0.1,0],[0.2,0],[0.3,0],[0.4,0],[0.5,0],[0.6,0],[0.7,0],[0.8,0],[0.9,0],[0,0.1],[0,0.3],[0,0.5],[0,0.7],[0,0.9],[0.1,1],[0.2,1],[0.3,1],[0.4,1],[0.5,1],[0.6,1],[0.7,1],[0.8,1],[0.9,1],[1,0.1],[1,0.3],[1,0.5],[1,0.7],[1,0.9]];" parent="lcjq12P4D_69llkglYpq-1" vertex="1">
          <mxGeometry x="248.5" y="549.5" width="413" height="35" as="geometry" />
        </mxCell>
        <mxCell id="9NP3h25YaKEncPSyTTvU-13" value="" style="endArrow=open;html=1;fontColor=#000099;endFill=0;dashed=1;entryX=0.5;entryY=1;entryDx=0;entryDy=0;endSize=8;rounded=0;edgeStyle=orthogonalEdgeStyle;exitX=0.974;exitY=0;exitDx=0;exitDy=0;exitPerimeter=0;" parent="lcjq12P4D_69llkglYpq-1" source="NIlG323Xyj8o4IyE_6QM-0" target="9NP3h25YaKEncPSyTTvU-15" edge="1">
          <mxGeometry width="50" height="50" relative="1" as="geometry">
            <mxPoint x="580" y="420" as="sourcePoint" />
            <mxPoint x="302.9999999999893" y="353.01" as="targetPoint" />
          </mxGeometry>
        </mxCell>
        <mxCell id="9NP3h25YaKEncPSyTTvU-14" value="&amp;lt;&amp;lt;rdf:type&amp;gt;&amp;gt;" style="text;html=1;align=center;verticalAlign=middle;resizable=0;points=[];fontColor=#000000;labelBackgroundColor=#ffffff;" parent="9NP3h25YaKEncPSyTTvU-13" vertex="1" connectable="0">
          <mxGeometry x="-0.3277" relative="1" as="geometry">
            <mxPoint y="-10" as="offset" />
          </mxGeometry>
        </mxCell>
        <mxCell id="9NP3h25YaKEncPSyTTvU-15" value="xkos:Correspondence" style="rounded=0;whiteSpace=wrap;html=1;snapToPoint=1;points=[[0.1,0],[0.2,0],[0.3,0],[0.4,0],[0.5,0],[0.6,0],[0.7,0],[0.8,0],[0.9,0],[0,0.1],[0,0.3],[0,0.5],[0,0.7],[0,0.9],[0.1,1],[0.2,1],[0.3,1],[0.4,1],[0.5,1],[0.6,1],[0.7,1],[0.8,1],[0.9,1],[1,0.1],[1,0.3],[1,0.5],[1,0.7],[1,0.9]];" parent="lcjq12P4D_69llkglYpq-1" vertex="1">
          <mxGeometry x="510" y="320" width="140" height="30" as="geometry" />
        </mxCell>
        <mxCell id="9NP3h25YaKEncPSyTTvU-16" value="xkos:ConceptAssociation" style="rounded=0;whiteSpace=wrap;html=1;snapToPoint=1;points=[[0.1,0],[0.2,0],[0.3,0],[0.4,0],[0.5,0],[0.6,0],[0.7,0],[0.8,0],[0.9,0],[0,0.1],[0,0.3],[0,0.5],[0,0.7],[0,0.9],[0.1,1],[0.2,1],[0.3,1],[0.4,1],[0.5,1],[0.6,1],[0.7,1],[0.8,1],[0.9,1],[1,0.1],[1,0.3],[1,0.5],[1,0.7],[1,0.9]];" parent="lcjq12P4D_69llkglYpq-1" vertex="1">
          <mxGeometry x="490" y="460" width="140" height="30" as="geometry" />
        </mxCell>
        <mxCell id="9NP3h25YaKEncPSyTTvU-17" value="" style="endArrow=open;html=1;fontColor=#000099;endFill=0;dashed=1;entryX=0.55;entryY=1.067;entryDx=0;entryDy=0;endSize=8;rounded=0;edgeStyle=orthogonalEdgeStyle;exitX=0.926;exitY=-0.057;exitDx=0;exitDy=0;exitPerimeter=0;entryPerimeter=0;" parent="lcjq12P4D_69llkglYpq-1" source="9NP3h25YaKEncPSyTTvU-12" target="9NP3h25YaKEncPSyTTvU-16" edge="1">
          <mxGeometry width="50" height="50" relative="1" as="geometry">
            <mxPoint x="590" y="430" as="sourcePoint" />
            <mxPoint x="590" y="383.01" as="targetPoint" />
          </mxGeometry>
        </mxCell>
        <mxCell id="9NP3h25YaKEncPSyTTvU-18" value="&amp;lt;&amp;lt;rdf:type&amp;gt;&amp;gt;" style="text;html=1;align=center;verticalAlign=middle;resizable=0;points=[];fontColor=#000000;labelBackgroundColor=#ffffff;" parent="9NP3h25YaKEncPSyTTvU-17" vertex="1" connectable="0">
          <mxGeometry x="-0.3277" relative="1" as="geometry">
            <mxPoint x="1" y="-1" as="offset" />
          </mxGeometry>
        </mxCell>
        <mxCell id="9NP3h25YaKEncPSyTTvU-19" value="" style="endArrow=classic;html=1;exitX=0.5;exitY=1;exitDx=0;exitDy=0;entryX=0.5;entryY=0;entryDx=0;entryDy=0;endSize=8;rounded=0;fontSize=12;" parent="lcjq12P4D_69llkglYpq-1" source="NIlG323Xyj8o4IyE_6QM-0" target="9NP3h25YaKEncPSyTTvU-12" edge="1">
          <mxGeometry width="50" height="50" relative="1" as="geometry">
            <mxPoint x="465" y="416.99" as="sourcePoint" />
            <mxPoint x="550" y="266.5" as="targetPoint" />
          </mxGeometry>
        </mxCell>
        <mxCell id="9NP3h25YaKEncPSyTTvU-20" value="xkos:madeOf" style="text;html=1;align=center;verticalAlign=middle;resizable=0;points=[];labelBackgroundColor=#ffffff;fontSize=12;" parent="9NP3h25YaKEncPSyTTvU-19" vertex="1" connectable="0">
          <mxGeometry x="-0.1269" relative="1" as="geometry">
            <mxPoint x="-2" y="21" as="offset" />
          </mxGeometry>
        </mxCell>
        <mxCell id="9NP3h25YaKEncPSyTTvU-21" value="" style="endArrow=classic;html=1;entryX=0.9;entryY=0;entryDx=0;entryDy=0;endSize=8;rounded=0;fontSize=12;exitX=0.27;exitY=1.043;exitDx=0;exitDy=0;exitPerimeter=0;" parent="lcjq12P4D_69llkglYpq-1" source="9NP3h25YaKEncPSyTTvU-12" target="9NP3h25YaKEncPSyTTvU-6" edge="1">
          <mxGeometry width="50" height="50" relative="1" as="geometry">
            <mxPoint x="450" y="630" as="sourcePoint" />
            <mxPoint x="465" y="550" as="targetPoint" />
          </mxGeometry>
        </mxCell>
        <mxCell id="9NP3h25YaKEncPSyTTvU-22" value="xkos:sourceConcept" style="text;html=1;align=center;verticalAlign=middle;resizable=0;points=[];labelBackgroundColor=#ffffff;fontSize=12;" parent="9NP3h25YaKEncPSyTTvU-21" vertex="1" connectable="0">
          <mxGeometry x="-0.1269" relative="1" as="geometry">
            <mxPoint x="-2" y="3" as="offset" />
          </mxGeometry>
        </mxCell>
        <mxCell id="9NP3h25YaKEncPSyTTvU-23" value="" style="endArrow=classic;html=1;entryX=0.179;entryY=0;entryDx=0;entryDy=0;endSize=8;rounded=0;fontSize=12;entryPerimeter=0;exitX=0.769;exitY=1.043;exitDx=0;exitDy=0;exitPerimeter=0;" parent="lcjq12P4D_69llkglYpq-1" source="9NP3h25YaKEncPSyTTvU-12" target="9NP3h25YaKEncPSyTTvU-7" edge="1">
          <mxGeometry width="50" height="50" relative="1" as="geometry">
            <mxPoint x="630" y="610" as="sourcePoint" />
            <mxPoint x="405" y="658.5" as="targetPoint" />
          </mxGeometry>
        </mxCell>
        <mxCell id="9NP3h25YaKEncPSyTTvU-24" value="xkos:targetConcept" style="text;html=1;align=center;verticalAlign=middle;resizable=0;points=[];labelBackgroundColor=#ffffff;fontSize=12;" parent="9NP3h25YaKEncPSyTTvU-23" vertex="1" connectable="0">
          <mxGeometry x="-0.1269" relative="1" as="geometry">
            <mxPoint x="-4" y="4" as="offset" />
          </mxGeometry>
        </mxCell>
        <mxCell id="9NP3h25YaKEncPSyTTvU-25" value="skos:Concept" style="rounded=0;whiteSpace=wrap;html=1;snapToPoint=1;points=[[0.1,0],[0.2,0],[0.3,0],[0.4,0],[0.5,0],[0.6,0],[0.7,0],[0.8,0],[0.9,0],[0,0.1],[0,0.3],[0,0.5],[0,0.7],[0,0.9],[0.1,1],[0.2,1],[0.3,1],[0.4,1],[0.5,1],[0.6,1],[0.7,1],[0.8,1],[0.9,1],[1,0.1],[1,0.3],[1,0.5],[1,0.7],[1,0.9]];" parent="lcjq12P4D_69llkglYpq-1" vertex="1">
          <mxGeometry x="385" y="730" width="140" height="30" as="geometry" />
        </mxCell>
        <mxCell id="9NP3h25YaKEncPSyTTvU-26" value="" style="endArrow=open;html=1;fontColor=#000099;endFill=0;dashed=1;entryX=1;entryY=0.5;entryDx=0;entryDy=0;endSize=8;rounded=0;edgeStyle=orthogonalEdgeStyle;exitX=0.1;exitY=1;exitDx=0;exitDy=0;" parent="lcjq12P4D_69llkglYpq-1" source="9NP3h25YaKEncPSyTTvU-7" target="9NP3h25YaKEncPSyTTvU-25" edge="1">
          <mxGeometry width="50" height="50" relative="1" as="geometry">
            <mxPoint x="770.02" y="638.0050000000001" as="sourcePoint" />
            <mxPoint x="790" y="483.01" as="targetPoint" />
          </mxGeometry>
        </mxCell>
        <mxCell id="9NP3h25YaKEncPSyTTvU-27" value="&amp;lt;&amp;lt;rdf:type&amp;gt;&amp;gt;" style="text;html=1;align=center;verticalAlign=middle;resizable=0;points=[];fontColor=#000000;labelBackgroundColor=#ffffff;" parent="9NP3h25YaKEncPSyTTvU-26" vertex="1" connectable="0">
          <mxGeometry x="-0.3277" relative="1" as="geometry">
            <mxPoint x="1" y="-1" as="offset" />
          </mxGeometry>
        </mxCell>
        <mxCell id="9NP3h25YaKEncPSyTTvU-28" value="" style="endArrow=open;html=1;fontColor=#000099;endFill=0;dashed=1;entryX=0;entryY=0.5;entryDx=0;entryDy=0;endSize=8;rounded=0;edgeStyle=orthogonalEdgeStyle;exitX=0.9;exitY=1;exitDx=0;exitDy=0;" parent="lcjq12P4D_69llkglYpq-1" source="9NP3h25YaKEncPSyTTvU-6" target="9NP3h25YaKEncPSyTTvU-25" edge="1">
          <mxGeometry width="50" height="50" relative="1" as="geometry">
            <mxPoint x="549" y="690" as="sourcePoint" />
            <mxPoint x="535" y="755" as="targetPoint" />
          </mxGeometry>
        </mxCell>
        <mxCell id="9NP3h25YaKEncPSyTTvU-29" value="&amp;lt;&amp;lt;rdf:type&amp;gt;&amp;gt;" style="text;html=1;align=center;verticalAlign=middle;resizable=0;points=[];fontColor=#000000;labelBackgroundColor=#ffffff;" parent="9NP3h25YaKEncPSyTTvU-28" vertex="1" connectable="0">
          <mxGeometry x="-0.3277" relative="1" as="geometry">
            <mxPoint x="1" y="-1" as="offset" />
          </mxGeometry>
        </mxCell>
        <mxCell id="9NP3h25YaKEncPSyTTvU-30" style="edgeStyle=none;rounded=0;orthogonalLoop=1;jettySize=auto;html=1;entryX=0;entryY=0.5;entryDx=0;entryDy=0;fontSize=12;" parent="lcjq12P4D_69llkglYpq-1" source="9NP3h25YaKEncPSyTTvU-25" target="9NP3h25YaKEncPSyTTvU-25" edge="1">
          <mxGeometry relative="1" as="geometry" />
        </mxCell>
      </root>
    </mxGraphModel>
  </diagram>
  <diagram id="s9l3PRfO2SNe8N4DwpmN" name="diagram V1">
    <mxGraphModel dx="1282" dy="793" grid="1" gridSize="10" guides="1" tooltips="1" connect="1" arrows="1" fold="1" page="1" pageScale="1" pageWidth="827" pageHeight="1169" math="0" shadow="0">
      <root>
        <mxCell id="0" />
        <mxCell id="1" parent="0" />
        <mxCell id="UN3yc_rN2kv_XTggENPB-1" value="&lt;div&gt;skos:ConceptScheme&lt;/div&gt;" style="rounded=0;whiteSpace=wrap;html=1;fillColor=#FFCC99;horizontal=1;" parent="1" vertex="1">
          <mxGeometry x="220" y="220" width="140" height="40" as="geometry" />
        </mxCell>
        <mxCell id="UN3yc_rN2kv_XTggENPB-2" value="&lt;div&gt;skos:ConceptScheme&lt;/div&gt;" style="rounded=0;whiteSpace=wrap;html=1;fillColor=#FFCC99;horizontal=1;" parent="1" vertex="1">
          <mxGeometry x="570" y="220" width="140" height="40" as="geometry" />
        </mxCell>
        <mxCell id="UN3yc_rN2kv_XTggENPB-3" value="dct:PeriodOfTime" style="rounded=0;whiteSpace=wrap;html=1;fillColor=#FFCC99;horizontal=1;" parent="1" vertex="1">
          <mxGeometry x="570" y="100" width="140" height="40" as="geometry" />
        </mxCell>
        <mxCell id="UN3yc_rN2kv_XTggENPB-4" value="" style="endArrow=classic;html=1;entryX=0.5;entryY=1;entryDx=0;entryDy=0;exitX=0.5;exitY=0;exitDx=0;exitDy=0;" parent="1" source="UN3yc_rN2kv_XTggENPB-2" target="UN3yc_rN2kv_XTggENPB-3" edge="1">
          <mxGeometry width="50" height="50" relative="1" as="geometry">
            <mxPoint x="390" y="270" as="sourcePoint" />
            <mxPoint x="440" y="220" as="targetPoint" />
            <Array as="points">
              <mxPoint x="640" y="170" />
            </Array>
          </mxGeometry>
        </mxCell>
        <mxCell id="UN3yc_rN2kv_XTggENPB-5" value="dct:PeriodOfTime" style="rounded=0;whiteSpace=wrap;html=1;fillColor=#FFCC99;horizontal=1;" parent="1" vertex="1">
          <mxGeometry x="220" y="100" width="140" height="40" as="geometry" />
        </mxCell>
        <mxCell id="UN3yc_rN2kv_XTggENPB-6" value="" style="endArrow=classic;html=1;entryX=0.5;entryY=1;entryDx=0;entryDy=0;exitX=0.5;exitY=0;exitDx=0;exitDy=0;" parent="1" source="UN3yc_rN2kv_XTggENPB-1" target="UN3yc_rN2kv_XTggENPB-5" edge="1">
          <mxGeometry width="50" height="50" relative="1" as="geometry">
            <mxPoint x="260" y="270" as="sourcePoint" />
            <mxPoint x="310" y="220" as="targetPoint" />
          </mxGeometry>
        </mxCell>
        <mxCell id="UN3yc_rN2kv_XTggENPB-7" value="dct:temporal" style="text;html=1;strokeColor=none;fillColor=none;align=center;verticalAlign=middle;whiteSpace=wrap;rounded=0;" parent="1" vertex="1">
          <mxGeometry x="630" y="180" width="90" height="10" as="geometry" />
        </mxCell>
        <mxCell id="UN3yc_rN2kv_XTggENPB-11" value="&lt;div&gt;owl:deprecated&lt;br&gt;&lt;/div&gt;&lt;div&gt;&lt;br&gt;&lt;/div&gt;" style="text;html=1;strokeColor=none;fillColor=none;align=center;verticalAlign=middle;whiteSpace=wrap;rounded=0;" parent="1" vertex="1">
          <mxGeometry x="80" y="200" width="90" height="10" as="geometry" />
        </mxCell>
        <mxCell id="UN3yc_rN2kv_XTggENPB-12" value="" style="endArrow=classic;html=1;exitX=0;exitY=0.75;exitDx=0;exitDy=0;entryX=1;entryY=0.75;entryDx=0;entryDy=0;" parent="1" source="UN3yc_rN2kv_XTggENPB-2" target="UN3yc_rN2kv_XTggENPB-1" edge="1">
          <mxGeometry width="50" height="50" relative="1" as="geometry">
            <mxPoint x="390" y="270" as="sourcePoint" />
            <mxPoint x="440" y="220" as="targetPoint" />
          </mxGeometry>
        </mxCell>
        <mxCell id="UN3yc_rN2kv_XTggENPB-13" value="xkos:supersedes" style="text;html=1;strokeColor=none;fillColor=none;align=center;verticalAlign=middle;whiteSpace=wrap;rounded=0;" parent="1" vertex="1">
          <mxGeometry x="450" y="250" width="40" height="20" as="geometry" />
        </mxCell>
        <mxCell id="UN3yc_rN2kv_XTggENPB-14" value="" style="endArrow=classic;html=1;exitX=0;exitY=0.25;exitDx=0;exitDy=0;entryX=1;entryY=0.25;entryDx=0;entryDy=0;" parent="1" source="UN3yc_rN2kv_XTggENPB-2" target="UN3yc_rN2kv_XTggENPB-1" edge="1">
          <mxGeometry width="50" height="50" relative="1" as="geometry">
            <mxPoint x="390" y="270" as="sourcePoint" />
            <mxPoint x="440" y="220" as="targetPoint" />
          </mxGeometry>
        </mxCell>
        <mxCell id="UN3yc_rN2kv_XTggENPB-16" value="prov:wasRevisionOf" style="text;html=1;strokeColor=none;fillColor=none;align=center;verticalAlign=middle;whiteSpace=wrap;rounded=0;" parent="1" vertex="1">
          <mxGeometry x="450" y="210" width="40" height="20" as="geometry" />
        </mxCell>
        <mxCell id="UN3yc_rN2kv_XTggENPB-18" value="NAFrev1" style="rounded=0;whiteSpace=wrap;html=1;fillColor=#FFCC99;horizontal=1;" parent="1" vertex="1">
          <mxGeometry x="190" y="340" width="140" height="40" as="geometry" />
        </mxCell>
        <mxCell id="UN3yc_rN2kv_XTggENPB-19" value="&lt;div&gt;NAFrev2&lt;/div&gt;" style="rounded=0;whiteSpace=wrap;html=1;fillColor=#FFCC99;horizontal=1;" parent="1" vertex="1">
          <mxGeometry x="590" y="340" width="140" height="40" as="geometry" />
        </mxCell>
        <mxCell id="UN3yc_rN2kv_XTggENPB-20" value="" style="endArrow=classic;html=1;exitX=0.5;exitY=1;exitDx=0;exitDy=0;" parent="1" source="UN3yc_rN2kv_XTggENPB-1" target="UN3yc_rN2kv_XTggENPB-18" edge="1">
          <mxGeometry width="50" height="50" relative="1" as="geometry">
            <mxPoint x="350" y="340" as="sourcePoint" />
            <mxPoint x="400" y="290" as="targetPoint" />
          </mxGeometry>
        </mxCell>
        <mxCell id="UN3yc_rN2kv_XTggENPB-22" value="" style="endArrow=classic;html=1;exitX=0.5;exitY=1;exitDx=0;exitDy=0;entryX=0.557;entryY=0.025;entryDx=0;entryDy=0;entryPerimeter=0;" parent="1" source="UN3yc_rN2kv_XTggENPB-2" target="UN3yc_rN2kv_XTggENPB-19" edge="1">
          <mxGeometry width="50" height="50" relative="1" as="geometry">
            <mxPoint x="634" y="260" as="sourcePoint" />
            <mxPoint x="610" y="342" as="targetPoint" />
          </mxGeometry>
        </mxCell>
        <mxCell id="UN3yc_rN2kv_XTggENPB-23" value="skos:prefLabel" style="text;html=1;strokeColor=none;fillColor=none;align=center;verticalAlign=middle;whiteSpace=wrap;rounded=0;" parent="1" vertex="1">
          <mxGeometry x="220" y="300" width="90" height="10" as="geometry" />
        </mxCell>
        <mxCell id="UN3yc_rN2kv_XTggENPB-24" value="skos:prefLabel" style="text;html=1;strokeColor=none;fillColor=none;align=center;verticalAlign=middle;whiteSpace=wrap;rounded=0;" parent="1" vertex="1">
          <mxGeometry x="610" y="290" width="90" height="10" as="geometry" />
        </mxCell>
        <mxCell id="UN3yc_rN2kv_XTggENPB-25" value="xkos:Correspondance" style="rounded=0;whiteSpace=wrap;html=1;fillColor=#FFCC99;horizontal=1;" parent="1" vertex="1">
          <mxGeometry x="390" y="400" width="140" height="40" as="geometry" />
        </mxCell>
        <mxCell id="UN3yc_rN2kv_XTggENPB-27" value="" style="endArrow=classic;html=1;entryX=0.864;entryY=1.025;entryDx=0;entryDy=0;entryPerimeter=0;exitX=0;exitY=0;exitDx=0;exitDy=0;" parent="1" source="UN3yc_rN2kv_XTggENPB-25" target="UN3yc_rN2kv_XTggENPB-1" edge="1">
          <mxGeometry width="50" height="50" relative="1" as="geometry">
            <mxPoint x="400" y="360" as="sourcePoint" />
            <mxPoint x="450" y="310" as="targetPoint" />
          </mxGeometry>
        </mxCell>
        <mxCell id="UN3yc_rN2kv_XTggENPB-28" value="" style="endArrow=classic;html=1;entryX=0.093;entryY=1;entryDx=0;entryDy=0;entryPerimeter=0;" parent="1" target="UN3yc_rN2kv_XTggENPB-2" edge="1">
          <mxGeometry width="50" height="50" relative="1" as="geometry">
            <mxPoint x="530" y="398" as="sourcePoint" />
            <mxPoint x="350.96000000000004" y="271" as="targetPoint" />
          </mxGeometry>
        </mxCell>
        <mxCell id="UN3yc_rN2kv_XTggENPB-29" value="xkos:ConceptAssociation" style="rounded=0;whiteSpace=wrap;html=1;fillColor=#FFCC99;horizontal=1;" parent="1" vertex="1">
          <mxGeometry x="385" y="500" width="150" height="40" as="geometry" />
        </mxCell>
        <mxCell id="UN3yc_rN2kv_XTggENPB-30" value="" style="endArrow=classic;html=1;exitX=0.5;exitY=1;exitDx=0;exitDy=0;entryX=0.5;entryY=0;entryDx=0;entryDy=0;" parent="1" source="UN3yc_rN2kv_XTggENPB-25" target="UN3yc_rN2kv_XTggENPB-29" edge="1">
          <mxGeometry width="50" height="50" relative="1" as="geometry">
            <mxPoint x="390" y="370" as="sourcePoint" />
            <mxPoint x="440" y="320" as="targetPoint" />
          </mxGeometry>
        </mxCell>
        <mxCell id="UN3yc_rN2kv_XTggENPB-31" value="xkos:madeOf" style="text;html=1;strokeColor=none;fillColor=none;align=center;verticalAlign=middle;whiteSpace=wrap;rounded=0;" parent="1" vertex="1">
          <mxGeometry x="440" y="460" width="40" height="20" as="geometry" />
        </mxCell>
        <mxCell id="UN3yc_rN2kv_XTggENPB-32" value="xkos:compares" style="text;html=1;strokeColor=none;fillColor=none;align=center;verticalAlign=middle;whiteSpace=wrap;rounded=0;" parent="1" vertex="1">
          <mxGeometry x="374" y="310" width="40" height="20" as="geometry" />
        </mxCell>
        <mxCell id="UN3yc_rN2kv_XTggENPB-33" value="xkos:compares" style="text;html=1;strokeColor=none;fillColor=none;align=center;verticalAlign=middle;whiteSpace=wrap;rounded=0;" parent="1" vertex="1">
          <mxGeometry x="520" y="310" width="40" height="20" as="geometry" />
        </mxCell>
        <mxCell id="UN3yc_rN2kv_XTggENPB-35" value="" style="endArrow=classic;html=1;exitX=0;exitY=0;exitDx=0;exitDy=0;entryX=0.5;entryY=1;entryDx=0;entryDy=0;fontColor=#E8E8E8;strokeColor=#969696;" parent="1" source="UN3yc_rN2kv_XTggENPB-1" target="UN3yc_rN2kv_XTggENPB-36" edge="1">
          <mxGeometry width="50" height="50" relative="1" as="geometry">
            <mxPoint x="120" y="200" as="sourcePoint" />
            <mxPoint x="130" y="170" as="targetPoint" />
          </mxGeometry>
        </mxCell>
        <mxCell id="UN3yc_rN2kv_XTggENPB-36" value="&lt;span class=&quot;name&quot;&gt;&quot;true&quot;^^&lt;i&gt;xsd:boolean&lt;/i&gt;&lt;/span&gt;" style="rounded=0;whiteSpace=wrap;html=1;fillColor=#FFCC99;horizontal=1;" parent="1" vertex="1">
          <mxGeometry x="50" y="130" width="140" height="40" as="geometry" />
        </mxCell>
        <mxCell id="5qeYfl_b13Zj5mHu_l6C-1" value="dct:temporal" style="text;html=1;strokeColor=none;fillColor=none;align=center;verticalAlign=middle;whiteSpace=wrap;rounded=0;" parent="1" vertex="1">
          <mxGeometry x="260" y="180" width="90" height="10" as="geometry" />
        </mxCell>
        <mxCell id="5qeYfl_b13Zj5mHu_l6C-6" value="" style="endArrow=classic;html=1;entryX=0.5;entryY=1;entryDx=0;entryDy=0;" parent="1" edge="1">
          <mxGeometry width="50" height="50" relative="1" as="geometry">
            <mxPoint x="250" y="100" as="sourcePoint" />
            <mxPoint x="250" y="70" as="targetPoint" />
            <Array as="points">
              <mxPoint x="250" y="100" />
            </Array>
          </mxGeometry>
        </mxCell>
        <mxCell id="5qeYfl_b13Zj5mHu_l6C-7" value="" style="endArrow=classic;html=1;entryX=0.5;entryY=1;entryDx=0;entryDy=0;" parent="1" edge="1">
          <mxGeometry width="50" height="50" relative="1" as="geometry">
            <mxPoint x="340" y="100" as="sourcePoint" />
            <mxPoint x="340" y="70" as="targetPoint" />
            <Array as="points">
              <mxPoint x="340" y="100" />
            </Array>
          </mxGeometry>
        </mxCell>
        <mxCell id="5qeYfl_b13Zj5mHu_l6C-8" value="&lt;pre class=&quot;nohighlight turtle&quot;&gt;&quot;2004-01-12&quot;^^xsd:date&lt;/pre&gt;" style="rounded=0;whiteSpace=wrap;html=1;fillColor=#FFCC99;horizontal=1;" parent="1" vertex="1">
          <mxGeometry x="110" y="30" width="160" height="40" as="geometry" />
        </mxCell>
        <mxCell id="5qeYfl_b13Zj5mHu_l6C-9" value="&lt;pre class=&quot;nohighlight turtle&quot;&gt;&quot;2005-02-13&quot;^^xsd:date&lt;/pre&gt;" style="rounded=0;whiteSpace=wrap;html=1;fillColor=#FFCC99;horizontal=1;" parent="1" vertex="1">
          <mxGeometry x="320" y="30" width="160" height="40" as="geometry" />
        </mxCell>
        <mxCell id="5qeYfl_b13Zj5mHu_l6C-10" value="dcat:startDate" style="text;whiteSpace=wrap;html=1;" parent="1" vertex="1">
          <mxGeometry x="170" y="70" width="100" height="30" as="geometry" />
        </mxCell>
        <mxCell id="5qeYfl_b13Zj5mHu_l6C-11" value="dcat:endDate" style="text;whiteSpace=wrap;html=1;" parent="1" vertex="1">
          <mxGeometry x="340" y="70" width="100" height="30" as="geometry" />
        </mxCell>
      </root>
    </mxGraphModel>
  </diagram>
</mxfile>
